<svg xmlns="http://www.w3.org/2000/svg" viewBox="0 0 50.184 60">
  <defs>
    <style>
      .cls-1 {
        fill: #5475fb;
      }
    </style>
  </defs>
  <g id="_003-to-do" data-name="003-to-do" transform="translate(-41.882)">
    <g id="Group_157" data-name="Group 157" transform="translate(41.882)">
      <g id="Group_156" data-name="Group 156">
        <path id="Path_31" data-name="Path 31" class="cls-1" d="M150.719,2h-3V1a1,1,0,0,0-2,0V2h-12V1a1,1,0,0,0-2,0V2h-12V1a1,1,0,0,0-2,0V2h-3a3,3,0,0,0-3,3V24a1,1,0,0,0,2,0V5a1,1,0,0,1,1-1h3V6.184a3,3,0,1,0,2,0V4h12V6.184a3,3,0,1,0,2,0V4h12V6.184a3,3,0,1,0,2,0V4h3a1,1,0,0,1,1,1V57a1,1,0,0,1-1,1h-36a1,1,0,0,1-1-1V43a1,1,0,0,0-2,0V57a3,3,0,0,0,3,3h36a3,3,0,0,0,3-3V5A3,3,0,0,0,150.719,2Zm-32,8a1,1,0,1,1,1-1A1,1,0,0,1,118.719,10Zm14,0a1,1,0,1,1,1-1A1,1,0,0,1,132.719,10Zm14,0a1,1,0,1,1,1-1A1,1,0,0,1,146.719,10Z" transform="translate(-103.535)"/>
        <path id="Path_32" data-name="Path 32" class="cls-1" d="M148.9,134l.071,0a1,1,0,0,0,.729-.4l3-4a1,1,0,0,0-1.6-1.2l-2.309,3.078-1.185-1.185a1,1,0,0,0-1.414,1.414l2,2A1,1,0,0,0,148.9,134Z" transform="translate(-133.717 -113)"/>
        <path id="Path_33" data-name="Path 33" class="cls-1" d="M146.194,225.574l2,2a1,1,0,0,0,.707.293l.071,0a1,1,0,0,0,.729-.4l3-4a1,1,0,0,0-1.6-1.2l-2.309,3.078-1.185-1.185a1,1,0,0,0-1.414,1.414Z" transform="translate(-133.717 -195.867)"/>
        <path id="Path_34" data-name="Path 34" class="cls-1" d="M223.653,155.6h23a1,1,0,0,0,0-2h-23a1,1,0,0,0,0,2Z" transform="translate(-201.469 -135.601)"/>
        <path id="Path_35" data-name="Path 35" class="cls-1" d="M223.653,249.467h23a1,1,0,0,0,0-2h-23a1,1,0,0,0,0,2Z" transform="translate(-201.469 -218.467)"/>
        <path id="Path_36" data-name="Path 36" class="cls-1" d="M223.653,343.334h23a1,1,0,1,0,0-2h-23a1,1,0,1,0,0,2Z" transform="translate(-201.469 -301.334)"/>
        <path id="Path_37" data-name="Path 37" class="cls-1" d="M223.653,437.2h23a1,1,0,1,0,0-2h-23a1,1,0,1,0,0,2Z" transform="translate(-201.469 -384.201)"/>
        <path id="Path_38" data-name="Path 38" class="cls-1" d="M56.629,221.321l.73.73a1,1,0,1,0,1.414-1.414l-.712-.712a7.823,7.823,0,0,0-2.076-5.227L47.3,205.287a3.084,3.084,0,0,0-2.057-.982c-.058,0-.114-.02-.173-.021h0a3.238,3.238,0,0,0-1.778.515,3.069,3.069,0,0,0-.491.4,3.111,3.111,0,0,0-.086,4.322l1.5,1.624h0l7.086,7.676A7.867,7.867,0,0,0,56.629,221.321ZM44.183,208.162A1.12,1.12,0,0,1,45,206.283h.023a1.108,1.108,0,0,1,.8.36l.732.793-1.584,1.585Zm3.735.745,6.6,7.148a5.825,5.825,0,0,1,1.5,3.193,5.866,5.866,0,0,1-3.248-1.786l-6.435-6.971Z" transform="translate(-41.882 -180.344)"/>
      </g>
    </g>
  </g>
</svg>
